<svg xmlns="http://www.w3.org/2000/svg" viewBox="0 0 1200 900" fill="none">
  <rect width="1200" height="900" rx="48" fill="#111111"/>
  <path d="M370 300c0-22 18-40 40-40h380c22 0 40 18 40 40v78c0 20 8 39 22 53l43 42c15 15 23 36 23 58v269c0 22-18 40-40 40H282c-22 0-40-18-40-40V531c0-22 8-43 23-58l43-42c14-14 22-33 22-53v-78Z" fill="#1f2937" stroke="#f5f5f5" stroke-opacity="0.14" stroke-width="8"/>
  <path d="M438 520h324" stroke="#f59e0b" stroke-opacity="0.25" stroke-width="14" stroke-linecap="round"/>
  <path d="M390 350l75 120m345-120-75 120" stroke="#f5f5f5" stroke-opacity="0.12" stroke-width="18" stroke-linecap="round"/>
  <text x="90" y="810" fill="#f5f5f5" fill-opacity="0.9" font-family="Arial, Helvetica, sans-serif" font-size="78" font-weight="700" letter-spacing="6">NIGHT RUNNER CARGO</text>
</svg>
