<svg xmlns="http://www.w3.org/2000/svg" viewBox="0 0 1200 900" fill="none">
  <rect width="1200" height="900" rx="48" fill="#23251f"/>
  <path d="M360 294c0-22 18-40 40-40h400c22 0 40 18 40 40v80c0 20 8 39 22 53l38 37c16 16 24 37 24 59v263c0 22-18 40-40 40H276c-22 0-40-18-40-40V523c0-22 8-43 24-59l38-37c14-14 22-33 22-53v-80Z" fill="#4d5d30" stroke="#f5f5f5" stroke-opacity="0.14" stroke-width="8"/>
  <path d="M460 334h280" stroke="#f5f5f5" stroke-opacity="0.18" stroke-width="18" stroke-linecap="round"/>
  <path d="M330 510h540" stroke="#f5f5f5" stroke-opacity="0.12" stroke-width="20" stroke-linecap="round"/>
  <text x="90" y="810" fill="#f5f5f5" fill-opacity="0.9" font-family="Arial, Helvetica, sans-serif" font-size="78" font-weight="700" letter-spacing="6">URBAN UTILITY</text>
</svg>
